<?xml version="1.0" encoding="utf-8"?>
<!-- Generator: Adobe Illustrator 17.1.0, SVG Export Plug-In . SVG Version: 6.00 Build 0)  -->
<!DOCTYPE svg PUBLIC "-//W3C//DTD SVG 1.1//EN" "http://www.w3.org/Graphics/SVG/1.1/DTD/svg11.dtd">
<svg version="1.1" id="Camada_1" xmlns="http://www.w3.org/2000/svg" xmlns:xlink="http://www.w3.org/1999/xlink" x="0px" y="0px"
	 viewBox="0 0 212 41" enable-background="new 0 0 212 41" xml:space="preserve" width="283" height="54">
<path fill="#F6EFE9" d="M142.7,0h-18.8c-4.7,0-9.1,1.7-13,5c-3.9,3.3-6.3,7.3-7.2,11.9l-4.3,23.8h10.8l1.6-8.8h31.5l-1.6,8.8h10.8
	l4.3-23.8c0.2-1,0.3-2,0.3-3c0-4-1.4-7.3-4.1-9.9C150.3,1.3,146.9,0,142.7,0 M113.6,21.9l0.9-5.2c0.3-1.8,1.2-3.3,2.6-4.5
	c1.5-1.2,3.1-1.8,4.9-1.8h18.7c1.6,0,2.9,0.5,3.9,1.4c1,0.9,1.5,2.2,1.5,3.7c0,0.4,0,0.8-0.1,1.1l-0.9,5.2H113.6z M203.9,0.2h-25.1
	c-4.7,0-9,1.6-12.9,4.9c-3.9,3.2-6.2,7.2-7,11.8l-1.3,7.5c-0.2,1-0.3,1.9-0.3,2.9c0,3.9,1.3,7.2,4,9.8c2.6,2.6,6,3.9,10.1,3.9
	c0,0,0.1,0,0.1,0l18.8-0.1c4.7,0,9-1.7,12.8-4.9c3.9-3.2,6.2-7.1,7-11.7l1.8-10.1h-21.8l-1.9,10.4h11.2c-0.3,1.7-1.2,3.2-2.7,4.4
	c-1.5,1.2-3.1,1.8-4.9,1.8h-18.5c-1.6,0-2.8-0.5-3.8-1.4c-1-1-1.4-2.2-1.4-3.6c0-0.4,0-0.8,0.1-1.1l1.4-7.9c0.3-1.7,1.2-3.2,2.6-4.4
	c1.4-1.2,3-1.8,4.8-1.8h25L203.9,0.2z M53.6,0H24c-4.6,0-8.8,1.6-12.7,4.8c-3.8,3.2-6.2,7.1-7,11.7L0,40.7h10.5l1.7-9.8h30.1
	l1.8-9.9H14.1l0.9-4.8c0.3-1.7,1.2-3.2,2.6-4.4c1.4-1.2,3-1.8,4.8-1.8h29.5L53.6,0z M69.1,0H58.2L54,23.7c-0.2,1-0.3,2-0.3,3
	c0,4,1.4,7.4,4.1,10c2.7,2.7,6.2,4,10.5,4h27.9l1.9-10.5H70.2c-1.6,0-2.9-0.5-3.9-1.4c-1-1-1.5-2.2-1.5-3.7c0-0.4,0-0.8,0.1-1.1
	L69.1,0z"/>
</svg>
