<?xml version="1.0" encoding="utf-8"?>
<!-- Generator: Adobe Illustrator 21.0.2, SVG Export Plug-In . SVG Version: 6.00 Build 0)  -->
<svg version="1.1" id="Ebene_1" xmlns="http://www.w3.org/2000/svg" xmlns:xlink="http://www.w3.org/1999/xlink" x="0px" y="0px"
	 viewBox="0 0 277.3 43" style="enable-background:new 0 0 277.3 43;" xml:space="preserve">
<style type="text/css">
	.st0{fill:#FFFFFF;}
</style>
<g>
	<path class="st0" d="M32.4,0.6c-1.1,0-2.2,0.7-2.8,1.6L17.7,23.5L5.8,2.2c-0.6-1-1.6-1.6-2.8-1.6C1.4,0.6,0,2,0,3.7v36
		c0,1.5,1.3,2.8,2.8,2.8c1.5,0,2.8-1.3,2.8-2.8V12.5L15,29.7c0.5,1,1.6,1.6,2.7,1.6c1.1,0,2.2-0.6,2.7-1.6l9.5-17.2v27.1
		c0,1.5,1.2,2.8,2.7,2.8c1.5,0,2.8-1.3,2.8-2.8v-36C35.5,2,34.1,0.6,32.4,0.6"/>
	<path class="st0" d="M134,0.6h-24c-1.5,0-2.7,1.2-2.7,2.7c0,1.5,1.2,2.6,2.7,2.6h9.2v33.6c0,1.5,1.3,2.8,2.8,2.8
		c1.5,0,2.8-1.3,2.8-2.8V5.9h9.1c1.5,0,2.7-1.2,2.7-2.6C136.8,1.8,135.5,0.6,134,0.6"/>
	<path class="st0" d="M156.3,1.2c-2.1-0.4-4-0.6-5.8-0.6c-2.9,0-5.5,1.1-7.4,3c-2,2-3.1,4.8-3.1,8.1v28c0,1.5,1.2,2.8,2.8,2.8
		c1.5,0,2.8-1.2,2.8-2.8V11.4c0-1.7,0.5-3.1,1.5-4.1c0.9-1,2.2-1.5,3.6-1.5c0.4,0,0.7,0,1,0c0,0,0.1,0,0.1,0c1,0.1,1.9,0.2,2.7,0.4
		c0.2,0,0.3,0.1,0.5,0.1c0.3,0.1,0.6,0.1,0.9,0.1c1.5,0,2.8-1.1,2.8-2.6C158.4,2.6,157.5,1.4,156.3,1.2"/>
	<path class="st0" d="M166.2,0.6c-1.5,0-2.7,1.3-2.7,2.7v36.3c0,1.5,1.2,2.7,2.7,2.7c1.5,0,2.7-1.2,2.7-2.7V3.4
		C169,1.9,167.7,0.6,166.2,0.6"/>
	<path class="st0" d="M252.6,0.5c-1.5,0-2.7,1.3-2.7,2.7v36.3c0,1.5,1.2,2.7,2.7,2.7c1.5,0,2.7-1.2,2.7-2.7V3.3
		C255.3,1.8,254.1,0.5,252.6,0.5"/>
	<path class="st0" d="M263.6,13.4c-1.5,0-2.7,1.3-2.7,2.7v23.4c0,1.5,1.2,2.7,2.7,2.7c1.5,0,2.7-1.2,2.7-2.7V16.2
		C266.3,14.7,265,13.4,263.6,13.4"/>
	<path class="st0" d="M274.5,5.6c-1.5,0-2.7,1.3-2.7,2.7v31.2c0,1.5,1.2,2.7,2.7,2.7c1.5,0,2.7-1.2,2.7-2.7V8.3
		C277.3,6.8,276,5.6,274.5,5.6"/>
	<path class="st0" d="M241.6,18.6c-1.5,0-2.7,1.3-2.7,2.7v18.2c0,1.5,1.2,2.7,2.7,2.7c1.5,0,2.7-1.2,2.7-2.7V21.4
		C244.3,19.9,243.1,18.6,241.6,18.6"/>
	<path class="st0" d="M201.1,2.5c-3.4-1.6-7-2.5-10.8-2.5c-9,0-15,6-15,15v12.7c0,9,6,15,15,15c3.8,0,7.4-0.8,10.8-2.5
		c1-0.5,1.5-1.4,1.5-2.4c0-1.4-1.3-2.6-2.8-2.6c-0.4,0-0.9,0.2-1.2,0.3c-2.7,1.3-5.6,2.1-8.3,2.1c-5.9,0-9.5-3.5-9.5-9.5V14.6
		c0-5.9,3.6-9.5,9.5-9.5c2.7,0,5.5,0.7,8.3,2.1c0.4,0.2,0.8,0.2,1.2,0.2c1.6,0,2.8-1.1,2.8-2.6C202.6,3.9,202,2.9,201.1,2.5"/>
	<path class="st0" d="M91.4,0c-9,0-15.1,6.1-15.1,15.1v3h-4.8v-3c0-9-6-15.1-15-15.1c-9,0-15.1,6.1-15.1,15.1v12.8
		c0,9,6.1,15.1,15.1,15.1c4.2,0,8.2-0.9,11.8-2.6c1-0.5,1.6-1.4,1.6-2.5c0-1.5-1.2-2.6-2.8-2.6c-0.1,0-0.2,0-0.3,0
		c-0.2,0-0.4,0.1-0.6,0.1c-0.1,0-0.2,0-0.3,0.1c-3.6,1.6-6.6,2.3-9.4,2.3c-2.9,0-5.3-0.9-7-2.7c-1.7-1.8-2.5-4.3-2.5-7.2v-4.7h20.7
		c0,0,0.1,0,0.1,0h8.5v4.7c0,9,6.1,15.1,15.1,15.1c4.2,0,8.2-0.9,11.8-2.6c1-0.5,1.6-1.4,1.6-2.5c0-1.5-1.2-2.6-2.8-2.6
		c-0.1,0-0.2,0-0.3,0c-0.2,0-0.4,0.1-0.6,0.1c-0.1,0-0.2,0-0.3,0.1c-3.6,1.6-6.5,2.3-9.4,2.3c-2.9,0-5.3-0.9-7-2.7
		c-1.7-1.8-2.5-4.3-2.5-7.2v-4.7h20.7c2.1,0,3.9-1.7,3.9-3.9v-4.3C106.4,6.1,100.4,0,91.4,0 M47,14.7c0-6,3.6-9.5,9.5-9.5
		c5.9,0,9.4,3.6,9.4,9.5v3.4H47V14.7z M100.9,18.1h-19v-3.4c0-6,3.6-9.5,9.5-9.5c5.9,0,9.4,3.6,9.4,9.5V18.1z"/>
	<path class="st0" d="M207.8,40.5c3.4,1.6,6.9,2.4,10.8,2.4c3.6,0,7-1.2,9.4-3.5c2.4-2.2,3.7-5.3,3.7-8.6c0-4.8-3.1-8.9-8.2-10.9
		l-7.7-3.1c-1.5-0.6-4.1-2.2-4.1-5.7c0-4,3.6-5.8,7.1-5.8c3.1,0,6,0.6,8.6,1.8c0.4,0.2,0.7,0.2,1.1,0.2c1.6,0,2.8-1.1,2.8-2.5
		c0-1.1-0.6-2.1-1.7-2.6c-3.1-1.4-6.4-2.1-10-2.1c-3.6,0-7,1.1-9.4,3c-2.6,2.1-3.9,4.9-3.9,8.1c0,1.2,0.1,2.3,0.4,3.3
		c0,0.1,0,0.1,0.1,0.2c0.1,0.4,0.3,0.8,0.5,1.2c0,0.1,0.1,0.2,0.1,0.3c0.2,0.4,0.4,0.7,0.6,1.1c0.1,0.1,0.1,0.2,0.2,0.3
		c0.3,0.4,0.5,0.7,0.9,1.1c0,0,0.1,0.1,0.1,0.1c1.1,1.1,2.5,2.1,4.3,2.8l7.7,3.2c3.7,1.6,5.2,3.5,5.2,6.8c0,1.8-0.8,3.4-2.2,4.5
		c-1.3,1.1-3.2,1.6-5.1,1.6c-3.7,0-6.8-1.2-8.8-2.1c-0.1,0-0.1,0-0.2-0.1c-0.3-0.1-0.6-0.3-1-0.3c-1.6,0-2.8,1.1-2.8,2.6
		C206.2,39.1,206.7,40,207.8,40.5"/>
</g>
</svg>
